<svg width="170" height="36" viewBox="0 0 170 36" fill="none" xmlns="http://www.w3.org/2000/svg">
<path d="M11.1964 11.423H13.1184V24.877H11.1964V29H22.7284V24.877H19.5664V20.94H25.4564V16.817H19.5664V11.423H24.2474V14.182H29.7344V7.331H11.1964V11.423ZM31.8329 8.974C31.8329 10.462 33.2279 12.105 35.1809 12.105C37.3819 12.105 38.5909 10.679 38.5909 8.974C38.5909 7.548 37.3199 5.812 35.1809 5.812C33.0109 5.812 31.8329 7.548 31.8329 8.974ZM39.6449 24.939H38.1569V13.5H30.9649V17.53H32.2669V24.939H30.9649V29H39.6449V24.939ZM54.1554 23.854C52.4814 25.249 50.8694 25.342 49.8154 25.342C47.2114 25.342 46.8084 23.637 46.6224 22.8H56.3874C57.0384 21.033 56.6974 18.646 56.3254 17.561C55.4264 14.957 52.6054 13.066 48.9164 13.066C44.2354 13.066 40.5774 16.073 40.5774 21.157C40.5774 27.109 44.9174 29.558 48.7614 29.558C51.9854 29.558 54.4654 28.845 56.7594 26.861L54.1554 23.854ZM49.1024 17.251C51.0864 17.251 51.3654 18.553 51.3964 19.731H46.7154C46.7774 18.956 47.2114 17.251 49.1024 17.251ZM67.0511 24.939H65.2221V5.75H58.0301V9.749H59.3321V24.939H57.9991V29H67.0511V24.939ZM78.9251 14.368C78.3361 13.996 77.2201 13.19 75.0191 13.19C71.2061 13.19 67.8271 16.259 67.8271 21.095C67.8271 25.404 70.6481 29.279 75.0191 29.279C77.1581 29.279 78.5221 28.225 78.9251 27.853L79.4521 29H86.7061V24.97H85.2181V5.75H77.4991V9.78H78.9251V14.368ZM74.4921 21.095C74.4921 18.739 75.3911 17.22 76.6931 17.22C77.8711 17.22 78.9251 18.832 78.9251 20.94C79.0491 23.389 77.9331 24.908 76.7241 24.908C75.3601 24.908 74.4921 22.955 74.4921 21.095ZM99.7196 29C105.703 29 108.152 27.078 108.152 22.707C108.152 19.7 106.292 18.057 104.06 17.437C106.385 16.507 107.098 15.236 107.098 12.632C107.098 9.253 104.649 7.331 99.5026 7.331H87.9396V11.33H89.7376V24.97H87.9396V29H99.7196ZM98.1076 11.423C99.2856 11.423 100.154 12.26 100.154 13.686C100.154 15.174 99.6886 16.073 98.0456 16.073H96.1546V11.423H98.1076ZM96.1546 24.97V19.576H98.5416C100.247 19.576 101.146 20.723 101.146 22.304C101.146 23.978 99.9366 24.97 98.6346 24.97H96.1546ZM110.865 18.398C112.043 17.747 113.655 16.972 115.484 16.972C117.158 16.972 118.429 17.313 118.429 18.708V19.793C118.274 19.607 117.189 18.708 115.36 18.708C111.857 18.708 108.912 20.909 108.912 24.412C108.912 28.008 112.074 29.589 115.019 29.589C116.135 29.589 118.057 29.186 119.204 27.605L119.948 29H126.582V25.032H124.722V18.987C124.722 13.996 120.041 12.601 116.321 12.601C113.469 12.601 110.803 14.058 109.563 14.802L110.865 18.398ZM116.445 25.559C115.515 25.559 114.802 24.97 114.802 24.102C114.802 23.141 115.36 22.459 116.6 22.459C117.902 22.459 118.336 23.203 118.429 23.358V24.536C118.15 25.001 117.375 25.559 116.445 25.559ZM131.375 29L131.654 27.109C132.398 28.287 134.165 29.372 136.397 29.372C139.404 29.372 142.163 27.636 142.163 24.722C142.163 21.467 139.528 20.568 137.172 19.762C135.188 19.08 133.359 18.708 133.359 17.84C133.359 17.065 133.917 16.724 134.568 16.724C136.118 16.724 137.73 17.778 137.73 19.08H141.76V13.5H137.947L137.699 15.546C137.048 14.213 135.188 13.128 133.08 13.128C130.879 13.128 127.624 14.461 127.624 17.623C127.624 20.537 129.639 21.839 131.747 22.583C133.979 23.358 136.304 23.513 136.304 24.443C136.304 25.311 135.56 25.497 134.94 25.497C134.01 25.497 131.654 25.063 131.654 23.42H127.5V29H131.375ZM156.51 23.854C154.836 25.249 153.224 25.342 152.17 25.342C149.566 25.342 149.163 23.637 148.977 22.8H158.742C159.393 21.033 159.052 18.646 158.68 17.561C157.781 14.957 154.96 13.066 151.271 13.066C146.59 13.066 142.932 16.073 142.932 21.157C142.932 27.109 147.272 29.558 151.116 29.558C154.34 29.558 156.82 28.845 159.114 26.861L156.51 23.854ZM151.457 17.251C153.441 17.251 153.72 18.553 153.751 19.731H149.07C149.132 18.956 149.566 17.251 151.457 17.251Z" fill="white"/>
</svg>
